<?xml version="1.0" encoding="UTF-8"?>
<svg width="128" height="128" viewBox="0 0 128 128" xmlns="http://www.w3.org/2000/svg">
    <!-- Hintergrund -->
    <rect width="128" height="128" rx="24" fill="#4CAF50"/>
    
    <!-- Schloss -->
    <path d="M64 40C52.954 40 44 48.954 44 60v8h-8v40h56V68h-8v-8c0-11.046-8.954-20-20-20zm0 8c6.627 0 12 5.373 12 12v8H52v-8c0-6.627 5.373-12 12-12z" 
          fill="white"/>
    
    <!-- Schlüssel -->
    <path d="M88 56c-4.418 0-8 3.582-8 8 0 4.418 3.582 8 8 8s8-3.582 8-8c0-4.418-3.582-8-8-8zm0 4c2.209 0 4 1.791 4 4s-1.791 4-4 4-4-1.791-4-4 1.791-4 4-4z" 
          fill="white"/>
</svg> 